<?xml version="1.0" encoding="UTF-8"?>
<svg width="22px" height="20px" viewBox="0 0 22 20" version="1.1" xmlns="http://www.w3.org/2000/svg" xmlns:xlink="http://www.w3.org/1999/xlink">
    <!-- Generator: Sketch 47 (45396) - http://www.bohemiancoding.com/sketch -->
    <title>Shape</title>
    <desc>Created with Sketch.</desc>
    <defs></defs>
    <g id="Symbols" stroke="none" stroke-width="1" fill="none" fill-rule="evenodd">
        <g id="Mobile-Article" transform="translate(-228.000000, -247.000000)" fill-rule="nonzero" fill="#FFFFFF">
            <g id="Article">
                <g id="Group" transform="translate(13.000000, 241.000000)">
                    <g id="Favoriet" transform="translate(215.000000, 1.000000)">
                        <path d="M11.00355,25 L10.7318671,24.8352087 C10.293559,24.5695516 0,18.2545619 0,11.8117214 C0,7.67386264 2.26253946,5 5.76376426,5 C8.14891471,5 10.1085946,6.30549261 11.00355,8.27853391 C11.8985054,6.30575459 13.8581852,5 16.2433356,5 C19.7445604,5 22.0070999,7.67386264 22.0070999,11.8117214 C22.0070999,18.2545619 11.7135409,24.5695516 11.2752328,24.8352087 L11.00355,25 Z M5.76376426,6.04795714 C2.85489723,6.04795714 1.04795714,8.25652681 1.04795714,11.8117214 C1.04795714,17.126174 9.37921639,22.726981 11.00355,23.7681264 C12.6268356,22.726981 20.9591428,17.1225062 20.9591428,11.8117214 C20.9591428,8.25652681 19.1522027,6.04795714 16.2433356,6.04795714 C13.5107874,6.04795714 11.5275285,8.03121602 11.5275285,10.7637643 L10.4795714,10.7637643 C10.4795714,8.03121602 8.4963125,6.04795714 5.76376426,6.04795714 Z" id="Shape"></path>
                    </g>
                </g>
            </g>
        </g>
    </g>
</svg>