<?xml version="1.0" encoding="UTF-8"?>
<svg width="182px" height="36px" viewBox="0 0 182 36" version="1.1" xmlns="http://www.w3.org/2000/svg" xmlns:xlink="http://www.w3.org/1999/xlink">
    <!-- Generator: Sketch 47 (45396) - http://www.bohemiancoding.com/sketch -->
    <title>Logo</title>
    <desc>Created with Sketch.</desc>
    <defs></defs>
    <g id="Symbols" stroke="none" stroke-width="1" fill="none" fill-rule="evenodd">
        <g id="Header" transform="translate(-15.000000, -15.000000)">
            <g id="Logo" transform="translate(15.000000, 15.000000)">
                <path d="M50.36,26.62 C50.06,26.62 50,26.5 50,26.26 L50,10.42 C50,10.12 50.12,10.06 50.36,10.06 L57.98,10.06 C60.92,10.06 62.6,11.68 62.6,14.44 L62.6,22.24 C62.6,25 60.92,26.62 57.98,26.62 L50.36,26.62 Z M57.5,23.26 C58.64,23.26 59.06,22.78 59.06,21.58 L59.06,15.04 C59.06,13.84 58.58,13.36 57.5,13.36 L53.54,13.36 L53.54,23.26 L57.5,23.26 Z M68.6,26.26 C68.6,26.56 68.48,26.62 68.24,26.62 L65.42,26.62 C65.12,26.62 65.06,26.5 65.06,26.26 L65.06,10.42 C65.06,10.12 65.18,10.06 65.42,10.06 L75.62,10.06 C75.92,10.06 75.98,10.18 75.98,10.42 L75.98,13 C75.98,13.3 75.86,13.36 75.62,13.36 L68.66,13.36 L68.66,16.96 L74.78,16.96 C75.08,16.96 75.14,17.08 75.14,17.32 L75.14,19.9 C75.14,20.2 75.02,20.26 74.78,20.26 L68.66,20.26 L68.66,26.26 L68.6,26.26 Z M78.26,26.62 C77.96,26.62 77.9,26.5 77.9,26.26 L77.9,10.42 C77.9,10.12 78.02,10.06 78.26,10.06 L85.94,10.06 C88.88,10.06 90.56,11.68 90.56,14.44 L90.56,22.24 C90.56,25 88.88,26.62 85.94,26.62 L78.26,26.62 Z M85.4,23.26 C86.54,23.26 86.96,22.78 86.96,21.58 L86.96,15.04 C86.96,13.84 86.48,13.36 85.4,13.36 L81.44,13.36 L81.44,23.26 L85.4,23.26 Z M92.9,26.68 C92.6,26.68 92.54,26.56 92.54,26.32 L92.54,23.74 C92.54,23.44 92.66,23.38 92.9,23.38 C92.9,23.38 96.26,23.44 98.84,23.44 C99.98,23.44 100.4,23.38 100.4,22.18 L100.4,21.82 C100.4,20.92 100.16,20.68 99.38,20.44 L95.72,19.24 C94.16,18.76 92.42,18.22 92.42,15.28 L92.42,14.02 C92.42,11.26 94.1,10 97.04,10 C99.62,10 102.56,10.06 102.56,10.06 C102.86,10.06 102.92,10.18 102.92,10.42 L102.92,13 C102.92,13.3 102.8,13.36 102.56,13.36 C102.56,13.36 99.86,13.3 97.52,13.3 C96.38,13.3 95.96,13.3 95.96,14.5 L95.96,14.86 C95.96,15.76 96.2,15.88 96.98,16.18 L100.64,17.38 C102.2,17.86 103.94,18.4 103.94,21.34 L103.94,22.66 C103.94,25.42 102.26,26.8 99.32,26.8 C96.32,26.74 92.9,26.68 92.9,26.68 Z" id="Shape" fill="#001E39" fill-rule="nonzero"></path>
                <path d="M29.3187775,35.88 C29.3187775,35.94 29.1988115,36 29.0788454,36 L0.286995344,36 C0.0470632596,36 -0.0729027825,35.76 0.0470632596,35.58 L20.6212395,0.12 C20.6812225,0.06 20.7412055,0 20.8611716,0 L49.7130047,0 C49.9529367,0 50.0729028,0.24 49.9529367,0.42 L29.3187775,35.88 Z M33.1576909,23.46 C33.2176739,23.46 33.2776569,23.4 33.2776569,23.34 L33.2776569,12.66 C33.2776569,12.6 33.2176739,12.54 33.1576909,12.6 L26.4995755,16.56 C26.4395925,16.62 26.3796095,16.56 26.4395925,16.5 L30.3984719,9.84 C30.4584549,9.78 30.3984719,9.72 30.3384889,9.72 L19.6615111,9.72 C19.6015281,9.72 19.5415451,9.78 19.6015281,9.84 L23.6203905,16.56 C23.6803735,16.62 23.6203905,16.68 23.5604075,16.62 L16.9022922,12.6 C16.8423091,12.54 16.7823261,12.6 16.7823261,12.66 L16.7823261,23.4 C16.7823261,23.46 16.8423091,23.52 16.9022922,23.46 L23.5604075,19.44 C23.6203905,19.38 23.6803735,19.44 23.6203905,19.5 L19.6015281,26.16 C19.5415451,26.22 19.6015281,26.28 19.6615111,26.28 L30.3384889,26.28 C30.3984719,26.28 30.4584549,26.22 30.3984719,26.16 L26.4395925,19.5 C26.3796095,19.44 26.4395925,19.38 26.4995755,19.44 L33.1576909,23.46 Z" id="Combined-Shape" fill="#001E39" fill-rule="nonzero"></path>
                <rect id="Rectangle" fill="#001E39" x="112" y="10" width="1" height="17"></rect>
                <path d="M123.688,21.744 L121.496,13.408 C121.474667,13.333333 121.453333,13.2533338 121.432,13.168 C121.410667,13.0826662 121.4,13.0240002 121.4,12.992 C121.4,12.9493331 121.410667,12.9120002 121.432,12.88 C121.453333,12.8479998 121.501333,12.832 121.576,12.832 L122.28,12.832 C122.354667,12.832 122.408,12.8453332 122.44,12.872 C122.472,12.8986668 122.498667,12.9546662 122.52,13.04 L124.776,21.744 C124.946668,22.3840032 125.103999,22.7653327 125.248,22.888 C125.392001,23.0106673 125.650665,23.072 126.024,23.072 L126.12,23.072 C126.493335,23.072 126.751999,23.0106673 126.896,22.888 C127.040001,22.7653327 127.197332,22.3840032 127.368,21.744 L129.624,13.04 C129.645333,12.9546662 129.672,12.8986668 129.704,12.872 C129.736,12.8453332 129.789333,12.832 129.864,12.832 L130.536,12.832 C130.610667,12.832 130.658667,12.8479998 130.68,12.88 C130.701333,12.9120002 130.712,12.9493331 130.712,12.992 C130.712,13.0240002 130.701333,13.0826662 130.68,13.168 C130.658667,13.2533338 130.637333,13.333333 130.616,13.408 L128.424,21.744 C128.189332,22.6293378 127.954668,23.2319984 127.72,23.552 C127.485332,23.8720016 126.973337,24.032 126.184,24.032 L125.928,24.032 C125.138663,24.032 124.626668,23.8720016 124.392,23.552 C124.157332,23.2319984 123.922668,22.6293378 123.688,21.744 Z M138.28,18.464 L138.28,20.208 C138.28,20.282667 138.264,20.3359998 138.232,20.368 C138.2,20.4000002 138.146667,20.416 138.072,20.416 L132.824,20.416 L132.824,21.248 C132.824,22.048004 133.034665,22.5573322 133.456,22.776 C133.877335,22.9946678 134.407997,23.104 135.048,23.104 C135.464002,23.104 135.938664,23.0933334 136.472,23.072 C137.005336,23.0506666 137.442665,23.0346667 137.784,23.024 C137.858667,23.024 137.912,23.0399998 137.944,23.072 C137.976,23.1040002 137.992,23.157333 137.992,23.232 L137.992,23.744 C137.992,23.818667 137.973334,23.8719998 137.936,23.904 C137.898666,23.9360002 137.848,23.952 137.784,23.952 C137.442665,23.9626667 137.002669,23.9786666 136.464,24 C135.925331,24.0213334 135.453335,24.032 135.048,24.032 C134.717332,24.032 134.362669,24.0080002 133.984,23.96 C133.605331,23.9119998 133.256002,23.7973342 132.936,23.616 C132.615998,23.4346658 132.349334,23.1600018 132.136,22.792 C131.922666,22.4239982 131.816,21.9253365 131.816,21.296 L131.816,18.464 C131.816,17.8346635 131.922666,17.3360018 132.136,16.968 C132.349334,16.5999982 132.615998,16.3253342 132.936,16.144 C133.256002,15.9626658 133.605331,15.8480002 133.984,15.8 C134.362669,15.7519998 134.717332,15.728 135.048,15.728 C135.378668,15.728 135.733331,15.7519998 136.112,15.8 C136.490669,15.8480002 136.839998,15.9626658 137.16,16.144 C137.480002,16.3253342 137.746666,16.5999982 137.96,16.968 C138.173334,17.3360018 138.28,17.8346635 138.28,18.464 Z M132.824,18.512 L132.824,19.488 L137.272,19.488 L137.272,18.512 C137.272,17.711996 137.061335,17.2026678 136.64,16.984 C136.218665,16.7653322 135.688003,16.656 135.048,16.656 C134.407997,16.656 133.877335,16.7653322 133.456,16.984 C133.034665,17.2026678 132.824,17.711996 132.824,18.512 Z M141.144,16.832 L141.144,23.792 C141.144,23.866667 141.128,23.9199998 141.096,23.952 C141.064,23.9840002 141.010667,24 140.936,24 L140.344,24 C140.269333,24 140.216,23.9840002 140.184,23.952 C140.152,23.9199998 140.136,23.866667 140.136,23.792 L140.136,16 C140.136,15.925333 140.152,15.8720002 140.184,15.84 C140.216,15.8079998 140.269333,15.792 140.344,15.792 L140.504,15.792 C140.578667,15.792 140.629333,15.7999999 140.656,15.816 C140.682667,15.8320001 140.712,15.8719997 140.744,15.936 L141.144,16.832 Z M144.104,16.608 C144.104,16.682667 144.088,16.7359998 144.056,16.768 C144.024,16.8000002 143.970667,16.816 143.896,16.816 C143.757333,16.8053333 143.576001,16.7973334 143.352,16.792 C143.127999,16.7866666 142.941334,16.784 142.792,16.784 C142.525332,16.784 142.232002,16.7893333 141.912,16.8 C141.591998,16.8106667 141.341334,16.8213333 141.16,16.832 L141.576,16 C141.618667,15.925333 141.653333,15.8826667 141.68,15.872 C141.706667,15.8613333 141.757333,15.8506667 141.832,15.84 C141.970667,15.8293333 142.149332,15.8186667 142.368,15.808 C142.586668,15.7973333 142.781332,15.792 142.952,15.792 L143.896,15.792 C143.970667,15.792 144.024,15.8079998 144.056,15.84 C144.088,15.8720002 144.104,15.925333 144.104,16 L144.104,16.608 Z M146.6,12.944 L146.6,23.792 C146.6,23.866667 146.584,23.9199998 146.552,23.952 C146.52,23.9840002 146.466667,24 146.392,24 L145.8,24 C145.725333,24 145.672,23.9840002 145.64,23.952 C145.608,23.9199998 145.592,23.866667 145.592,23.792 L145.592,12.944 C145.592,12.869333 145.608,12.8160002 145.64,12.784 C145.672,12.7519998 145.725333,12.736 145.8,12.736 L146.392,12.736 C146.466667,12.736 146.52,12.7519998 146.552,12.784 C146.584,12.8160002 146.6,12.869333 146.6,12.944 Z M147.032,16 C147.074667,15.925333 147.109333,15.8826667 147.136,15.872 C147.162667,15.8613333 147.213333,15.8506667 147.288,15.84 C147.458668,15.8293333 147.663999,15.8133334 147.904,15.792 C148.144001,15.7706666 148.349332,15.76 148.52,15.76 C148.904002,15.76 149.298665,15.7839998 149.704,15.832 C150.109335,15.8800002 150.474665,15.9946658 150.8,16.176 C151.125335,16.3573342 151.394666,16.6319982 151.608,17 C151.821334,17.3680018 151.928,17.8666635 151.928,18.496 L151.928,23.792 C151.928,23.866667 151.912,23.9199998 151.88,23.952 C151.848,23.9840002 151.794667,24 151.72,24 L151.128,24 C151.053333,24 151,23.9840002 150.968,23.952 C150.936,23.9199998 150.92,23.866667 150.92,23.792 L150.92,18.544 C150.92,17.743996 150.712002,17.2346678 150.296,17.016 C149.879998,16.7973322 149.288004,16.688 148.52,16.688 C148.253332,16.688 147.914669,16.6986666 147.504,16.72 C147.093331,16.7413334 146.797334,16.7573333 146.616,16.768 L147.032,16 Z M160.296,23.104 L160.84,23.104 C160.893334,23.104 160.933333,23.1146666 160.96,23.136 C160.986667,23.1573334 161,23.205333 161,23.28 L161,23.84 C161,23.914667 160.986667,23.9599999 160.96,23.976 C160.933333,23.9920001 160.893334,24 160.84,24 L159.944,24 C159.783999,24 159.658667,23.9760002 159.568,23.928 C159.477333,23.8799998 159.384,23.760001 159.288,23.568 L159.032,23.056 L159.032,19.568 L155.768,20.624 C155.362665,20.7520006 155.093334,20.8959992 154.96,21.056 C154.826666,21.2160008 154.76,21.4399986 154.76,21.728 L154.76,22.16 C154.76,22.6506691 154.927998,22.9386662 155.264,23.024 C155.600002,23.1093338 156.189329,23.152 157.032,23.152 C157.298668,23.152 157.650664,23.1386668 158.088,23.112 C158.525336,23.0853332 158.834666,23.0666667 159.016,23.056 L158.616,23.776 C158.573333,23.850667 158.538667,23.8933333 158.512,23.904 C158.485333,23.9146667 158.434667,23.9253333 158.36,23.936 C158.178666,23.9573334 157.944001,23.9786666 157.656,24 C157.367999,24.0213334 157.117334,24.032 156.904,24.032 C156.466664,24.032 156.056002,24.0213334 155.672,24 C155.287998,23.9786666 154.954668,23.9093339 154.672,23.792 C154.389332,23.6746661 154.168001,23.4880013 154.008,23.232 C153.847999,22.9759987 153.768,22.618669 153.768,22.16 L153.768,21.744 C153.768,21.2213307 153.887999,20.8186681 154.128,20.536 C154.368001,20.2533319 154.962662,19.9626682 155.912,19.664 L159.032,18.672 L159.032,18.384 C159.032,17.658663 158.882668,17.1946677 158.584,16.992 C158.285332,16.7893323 157.634672,16.688 156.632,16.688 C156.258665,16.688 155.866669,16.6986666 155.456,16.72 C155.045331,16.7413334 154.722668,16.7626666 154.488,16.784 C154.413333,16.784 154.36,16.7680002 154.328,16.736 C154.296,16.7039998 154.28,16.650667 154.28,16.576 L154.28,16.064 C154.28,15.989333 154.298666,15.9386668 154.336,15.912 C154.373334,15.8853332 154.424,15.8666667 154.488,15.856 C154.733335,15.8346666 155.061331,15.8133334 155.472,15.792 C155.882669,15.7706666 156.269332,15.76 156.632,15.76 C157.133336,15.76 157.594665,15.7813331 158.016,15.824 C158.437335,15.8666669 158.797332,15.9733325 159.096,16.144 C159.394668,16.3146675 159.626666,16.570665 159.792,16.912 C159.957334,17.253335 160.04,17.7119971 160.04,18.288 L160.04,22.8 C160.04,22.8960005 160.053333,22.9706664 160.08,23.024 C160.106667,23.0773336 160.178666,23.104 160.296,23.104 Z M165.672,23.312 L165.672,23.792 C165.672,23.8880005 165.653334,23.9519998 165.616,23.984 C165.578666,24.0160002 165.512,24.0373333 165.416,24.048 C165.362666,24.0586667 165.296,24.064 165.216,24.064 L164.856,24.064 C164.023996,24.064 163.429335,23.8880018 163.072,23.536 C162.714665,23.1839982 162.536,22.5920042 162.536,21.76 L162.536,12.944 C162.536,12.869333 162.552,12.8160002 162.584,12.784 C162.616,12.7519998 162.669333,12.736 162.744,12.736 L163.336,12.736 C163.410667,12.736 163.464,12.7519998 163.496,12.784 C163.528,12.8160002 163.544,12.869333 163.544,12.944 L163.544,21.76 C163.544,22.2826693 163.637332,22.6373324 163.824,22.824 C164.010668,23.0106676 164.365331,23.104 164.888,23.104 L165.464,23.104 C165.538667,23.104 165.592,23.1199998 165.624,23.152 C165.656,23.1840002 165.672,23.237333 165.672,23.312 Z M173.48,18.464 L173.48,20.208 C173.48,20.282667 173.464,20.3359998 173.432,20.368 C173.4,20.4000002 173.346667,20.416 173.272,20.416 L168.024,20.416 L168.024,21.248 C168.024,22.048004 168.234665,22.5573322 168.656,22.776 C169.077335,22.9946678 169.607997,23.104 170.248,23.104 C170.664002,23.104 171.138664,23.0933334 171.672,23.072 C172.205336,23.0506666 172.642665,23.0346667 172.984,23.024 C173.058667,23.024 173.112,23.0399998 173.144,23.072 C173.176,23.1040002 173.192,23.157333 173.192,23.232 L173.192,23.744 C173.192,23.818667 173.173334,23.8719998 173.136,23.904 C173.098666,23.9360002 173.048,23.952 172.984,23.952 C172.642665,23.9626667 172.202669,23.9786666 171.664,24 C171.125331,24.0213334 170.653335,24.032 170.248,24.032 C169.917332,24.032 169.562669,24.0080002 169.184,23.96 C168.805331,23.9119998 168.456002,23.7973342 168.136,23.616 C167.815998,23.4346658 167.549334,23.1600018 167.336,22.792 C167.122666,22.4239982 167.016,21.9253365 167.016,21.296 L167.016,18.464 C167.016,17.8346635 167.122666,17.3360018 167.336,16.968 C167.549334,16.5999982 167.815998,16.3253342 168.136,16.144 C168.456002,15.9626658 168.805331,15.8480002 169.184,15.8 C169.562669,15.7519998 169.917332,15.728 170.248,15.728 C170.578668,15.728 170.933331,15.7519998 171.312,15.8 C171.690669,15.8480002 172.039998,15.9626658 172.36,16.144 C172.680002,16.3253342 172.946666,16.5999982 173.16,16.968 C173.373334,17.3360018 173.48,17.8346635 173.48,18.464 Z M168.024,18.512 L168.024,19.488 L172.472,19.488 L172.472,18.512 C172.472,17.711996 172.261335,17.2026678 171.84,16.984 C171.418665,16.7653322 170.888003,16.656 170.248,16.656 C169.607997,16.656 169.077335,16.7653322 168.656,16.984 C168.234665,17.2026678 168.024,17.711996 168.024,18.512 Z M176.776,16 C176.818667,15.925333 176.853333,15.8826667 176.88,15.872 C176.906667,15.8613333 176.957333,15.8506667 177.032,15.84 C177.202668,15.8293333 177.407999,15.8133334 177.648,15.792 C177.888001,15.7706666 178.093332,15.76 178.264,15.76 C178.648002,15.76 179.042665,15.7839998 179.448,15.832 C179.853335,15.8800002 180.218665,15.9946658 180.544,16.176 C180.869335,16.3573342 181.138666,16.6319982 181.352,17 C181.565334,17.3680018 181.672,17.8666635 181.672,18.496 L181.672,23.792 C181.672,23.866667 181.656,23.9199998 181.624,23.952 C181.592,23.9840002 181.538667,24 181.464,24 L180.872,24 C180.797333,24 180.744,23.9840002 180.712,23.952 C180.68,23.9199998 180.664,23.866667 180.664,23.792 L180.664,18.544 C180.664,17.743996 180.456002,17.2346678 180.04,17.016 C179.623998,16.7973322 179.032004,16.688 178.264,16.688 C177.997332,16.688 177.658669,16.6986666 177.248,16.72 C176.837331,16.7413334 176.541334,16.7573333 176.36,16.768 L176.776,16 Z M176.344,16.768 L176.344,23.792 C176.344,23.866667 176.328,23.9199998 176.296,23.952 C176.264,23.9840002 176.210667,24 176.136,24 L175.544,24 C175.469333,24 175.416,23.9840002 175.384,23.952 C175.352,23.9199998 175.336,23.866667 175.336,23.792 L175.336,16 C175.336,15.925333 175.352,15.8720002 175.384,15.84 C175.416,15.8079998 175.469333,15.792 175.544,15.792 L175.704,15.792 C175.778667,15.792 175.829333,15.7999999 175.856,15.816 C175.882667,15.8320001 175.912,15.8719997 175.944,15.936 L176.344,16.768 Z" id="Verhalen" fill="#002B45"></path>
            </g>
        </g>
    </g>
</svg>