<?xml version="1.0" encoding="UTF-8"?>
<svg width="26px" height="26px" viewBox="0 0 26 26" version="1.1" xmlns="http://www.w3.org/2000/svg" xmlns:xlink="http://www.w3.org/1999/xlink">
    <!-- Generator: Sketch 47 (45396) - http://www.bohemiancoding.com/sketch -->
    <title>profile</title>
    <desc>Created with Sketch.</desc>
    <defs></defs>
    <g id="Symbols" stroke="none" stroke-width="1" fill="none" fill-rule="evenodd">
        <g id="profile" transform="translate(-2.000000, -2.000000)">
            <rect id="Rectangle-3" x="0" y="0" width="30" height="30"></rect>
            <g id="Group" transform="translate(3.000000, 3.000000)" stroke="#002B45" stroke-width="1.5">
                <path d="M11.7818182,14.7272727 C13.7454545,14.7272727 15.0545455,12 15.2727273,11.3454545 C15.2727273,11.3454545 15.6,11.1272727 15.6,11.1272727 C16.6909091,9.16363636 15.4909091,8.94545455 15.4909091,8.94545455 C15.4909091,8.94545455 15.6,7.96363636 15.2727273,6.98181818 C15.2727273,6.98181818 15.1636364,4.58181818 11.6727273,4.58181818 C8.29090909,4.58181818 8.07272727,6.98181818 8.07272727,6.98181818 C7.85454545,7.96363636 7.85454545,8.94545455 7.85454545,8.94545455 C7.85454545,8.94545455 6.65454545,9.16363636 7.74545455,11.1272727 C7.74545455,11.1272727 8.07272727,11.3454545 8.07272727,11.3454545 C8.50909091,12.1090909 9.81818182,14.7272727 11.7818182,14.7272727 Z" id="Shape"></path>
                <path d="M3.81818182,20.4 C3.81818182,17.4545455 5.78181818,16.0363636 7.74545455,15.3818182 C9.16363636,14.9454545 9.92727273,14.1818182 9.92727273,14.1818182" id="Shape"></path>
                <path d="M13.6363636,14.1818182 C13.6363636,14.1818182 14.4,14.9454545 15.8181818,15.3818182 C17.8909091,16.0363636 19.6363636,17.2363636 19.7454545,20.5090909" id="Shape"></path>
                <circle id="Oval" cx="12" cy="12" r="11.8909091"></circle>
            </g>
        </g>
    </g>
</svg>