<?xml version="1.0" encoding="UTF-8"?>
<svg width="26px" height="26px" viewBox="0 0 26 26" version="1.1" xmlns="http://www.w3.org/2000/svg" xmlns:xlink="http://www.w3.org/1999/xlink">
    <!-- Generator: Sketch 47 (45396) - http://www.bohemiancoding.com/sketch -->
    <title>profile</title>
    <desc>Created with Sketch.</desc>
    <defs></defs>
    <g id="Symbols" stroke="none" stroke-width="1" fill="none" fill-rule="evenodd">
        <g id="profile" transform="translate(-2.000000, -2.000000)">
            <rect id="Rectangle-3" x="0" y="0" width="30" height="30"></rect>
            <path d="M14.7818182,17.7272727 C16.7454545,17.7272727 18.0545455,15 18.2727273,14.3454545 C18.2727273,14.3454545 18.6,14.1272727 18.6,14.1272727 C19.6909091,12.1636364 18.4909091,11.9454545 18.4909091,11.9454545 C18.4909091,11.9454545 18.6,10.9636364 18.2727273,9.98181818 C18.2727273,9.98181818 18.1636364,7.58181818 14.6727273,7.58181818 C11.2909091,7.58181818 11.0727273,9.98181818 11.0727273,9.98181818 C10.8545455,10.9636364 10.8545455,11.9454545 10.8545455,11.9454545 C10.8545455,11.9454545 9.65454545,12.1636364 10.7454545,14.1272727 C10.7454545,14.1272727 11.0727273,14.3454545 11.0727273,14.3454545 C11.5090909,15.1090909 12.8181818,17.7272727 14.7818182,17.7272727 Z" id="Shape" stroke="#002B45" stroke-width="1.5"></path>
            <path d="M6.81818182,23.4 C6.81818182,20.4545455 8.78181818,19.0363636 10.7454545,18.3818182 C12.1636364,17.9454545 12.9272727,17.1818182 12.9272727,17.1818182" id="Shape" stroke="#002B45" stroke-width="1.5"></path>
            <path d="M16.6363636,17.1818182 C16.6363636,17.1818182 17.4,17.9454545 18.8181818,18.3818182 C20.8909091,19.0363636 22.6363636,20.2363636 22.7454545,23.5090909" id="Shape" stroke="#002B45" stroke-width="1.5"></path>
            <circle id="Oval" stroke="#002B45" stroke-width="1.5" cx="15" cy="15" r="11.8909091"></circle>
        </g>
    </g>
</svg>