<?xml version="1.0" encoding="UTF-8"?>
<svg width="21px" height="25px" viewBox="0 0 21 25" version="1.1" xmlns="http://www.w3.org/2000/svg" xmlns:xlink="http://www.w3.org/1999/xlink">
    <!-- Generator: Sketch 47 (45396) - http://www.bohemiancoding.com/sketch -->
    <title>Shape</title>
    <desc>Created with Sketch.</desc>
    <defs></defs>
    <g id="Symbols" stroke="none" stroke-width="1" fill="none" fill-rule="evenodd">
        <g id="Mobile-Article" transform="translate(-13.000000, -241.000000)" fill-rule="nonzero" fill="#FFFFFF">
            <g id="Article">
                <g id="Group" transform="translate(13.000000, 241.000000)">
                    <g id="Leestijd">
                        <path d="M17.6558366,7.57258085 L18.5619477,6.27882749 C18.825992,5.90207794 18.7345909,5.38268811 18.3577811,5.11864257 L16.5372255,3.84432744 C16.3561559,3.71753568 16.1321093,3.66786515 15.9143975,3.70624811 C15.6966856,3.74463107 15.5031519,3.86792169 15.3763922,4.04898428 L14.4722255,5.33857231 C13.6661395,4.97685204 12.8164223,4.7214582 11.9444477,4.57881502 L11.9444477,3.3322688 L12.5000033,3.3322688 C12.9602406,3.3322688 13.3333366,2.95929191 13.3333366,2.4992016 L13.3333366,0.833067201 C13.3333366,0.37297689 12.9602406,0 12.5000033,0 L8.05555884,0 C7.59532155,0 7.2222255,0.37297689 7.2222255,0.833067201 L7.2222255,2.4992016 C7.2222255,2.95929191 7.59532155,3.3322688 8.05555884,3.3322688 L8.61111439,3.3322688 L8.61111439,4.57881502 C7.73912486,4.72153775 6.889406,4.97702542 6.08333662,5.33885 L5.17889217,4.0487066 C4.91484991,3.6719232 4.39527881,3.58042435 4.01833662,3.84432744 L2.19805884,5.11836488 C1.82106117,5.3822352 1.72940602,5.90165572 1.99333662,6.2785498 L2.8997255,7.57258085 C-1.02345533,11.616656 -0.95752334,18.0646465 3.04753204,22.0277056 C7.05258742,25.9907648 13.5029747,25.9907648 17.5080301,22.0277056 C21.5130855,18.0646465 21.5790174,11.616656 17.6558366,7.57258085 Z M16.1280588,4.91343035 L17.4933366,5.86895843 L16.8333366,6.81032437 C16.405149,6.45504559 15.9489421,6.13493903 15.4691699,5.85313015 L16.1280588,4.91343035 Z M8.33333662,2.22151254 L8.33333662,1.11075627 L12.2222255,1.11075627 L12.2222255,2.22151254 L8.33333662,2.22151254 Z M9.7222255,3.3322688 L10.8333366,3.3322688 L10.8333366,4.45829797 C10.6492625,4.44811604 10.4640774,4.44302507 10.2777811,4.44302507 C10.0914848,4.44302507 9.90629958,4.44811604 9.7222255,4.45829797 L9.7222255,3.3322688 Z M4.42805884,4.91343035 L5.08639217,5.85340784 C4.6066122,6.13520449 4.15040424,6.45531172 3.7222255,6.81060206 L3.06278106,5.86895843 L4.42805884,4.91343035 Z M10.2777811,23.8812598 C5.21517085,23.8812598 1.11111439,19.778514 1.11111439,14.7175205 C1.11111439,9.65652713 5.21517085,5.55378134 10.2777811,5.55378134 C15.3403913,5.55378134 19.4444477,9.65652713 19.4444477,14.7175205 C19.4387836,19.7761667 15.3380433,23.8755975 10.2777811,23.8812598 Z M15.1627811,9.04877593 L15.9483366,9.83408062 L10.6705588,15.1101729 L9.88500328,14.3248682 L15.1627811,9.04877593 Z" id="Shape"></path>
                    </g>
                </g>
            </g>
        </g>
    </g>
</svg>